<?xml version="1.0" standalone="no"?>
<!DOCTYPE svg PUBLIC "-//W3C//DTD SVG 20010904//EN"
 "http://www.w3.org/TR/2001/REC-SVG-20010904/DTD/svg10.dtd">
<svg version="1.0" xmlns="http://www.w3.org/2000/svg"
 width="108.000000pt" height="106.000000pt" viewBox="0 0 108.000000 106.000000"
 preserveAspectRatio="xMidYMid meet">

<g transform="translate(0.000000,106.000000) scale(0.100000,-0.100000)"
fill="#000000" stroke="none">
<path d="M282 952 c-271 -107 -261 -97 -131 -142 l66 -24 158 62 158 62 154
-60 c85 -33 159 -60 166 -60 6 0 49 14 95 32 l84 31 -248 99 c-137 54 -251 98
-254 97 -3 0 -114 -44 -248 -97z"/>
<path d="M397 818 c-70 -29 -124 -55 -120 -58 12 -10 241 -100 256 -100 14 0
269 101 265 105 -5 4 -264 105 -269 104 -2 0 -61 -23 -132 -51z"/>
<path d="M915 534 c-71 -30 -134 -59 -138 -63 -5 -5 -7 -29 -5 -54 l3 -45 140
57 140 58 3 51 c2 29 -1 52 -5 51 -4 0 -66 -25 -138 -55z"/>
<path d="M12 508 l3 -71 240 -98 c132 -54 243 -99 248 -99 13 0 8 137 -5 143
-99 41 -482 197 -485 197 -2 0 -3 -32 -1 -72z"/>
<path d="M903 383 l-133 -56 0 -43 c0 -24 3 -44 7 -44 4 0 69 26 145 57 l138
57 0 43 c0 28 -4 43 -12 42 -7 0 -73 -26 -145 -56z"/>
<path d="M10 297 l0 -93 213 -86 c116 -48 229 -94 250 -103 l38 -16 -3 97 -3
98 -239 98 c-132 54 -243 98 -248 98 -4 0 -8 -42 -8 -93z"/>
<path d="M903 253 l-133 -56 0 -53 c0 -30 1 -54 3 -54 1 0 65 26 142 58 l140
58 3 52 c2 38 0 52 -10 51 -7 0 -73 -26 -145 -56z"/>
</g>
</svg>
